<svg width="202" height="42" viewBox="0 0 202 42" fill="none" xmlns="http://www.w3.org/2000/svg">
<path d="M11.264 32.42C7.792 32.42 5.118 31.468 3.242 29.564C1.366 27.632 0.428 24.804 0.428 21.08C0.428 17.412 1.324 14.612 3.116 12.68C4.936 10.72 7.512 9.74 10.844 9.74C12.328 9.74 13.756 9.838 15.128 10.034C15.772 10.118 16.304 10.412 16.724 10.916C17.144 11.42 17.354 12.008 17.354 12.68C17.354 13.24 17.13 13.688 16.682 14.024C16.262 14.36 15.772 14.472 15.212 14.36C14.12 14.136 12.902 14.024 11.558 14.024C9.794 14.024 8.478 14.584 7.61 15.704C6.742 16.824 6.308 18.616 6.308 21.08C6.308 23.6 6.77 25.406 7.694 26.498C8.618 27.59 10.046 28.136 11.978 28.136C13.35 28.136 14.54 28.01 15.548 27.758C16.08 27.618 16.556 27.716 16.976 28.052C17.424 28.388 17.648 28.822 17.648 29.354C17.648 30.026 17.438 30.614 17.018 31.118C16.626 31.622 16.108 31.93 15.464 32.042C14.036 32.294 12.636 32.42 11.264 32.42ZM25.6201 32C24.9761 32 24.4161 31.762 23.9401 31.286C23.4641 30.81 23.2261 30.25 23.2261 29.606V12.554C23.2261 11.91 23.4641 11.35 23.9401 10.874C24.4161 10.398 24.9761 10.16 25.6201 10.16H26.4601C27.1041 10.16 27.6641 10.398 28.1401 10.874C28.6161 11.35 28.8541 11.91 28.8541 12.554V14.318C28.8541 14.346 28.8681 14.36 28.8961 14.36C28.9521 14.36 28.9801 14.346 28.9801 14.318C29.7921 13.198 30.8561 12.288 32.1721 11.588C33.4881 10.86 34.9301 10.412 36.4981 10.244C37.0861 10.188 37.5901 10.384 38.0101 10.832C38.4301 11.252 38.6401 11.756 38.6401 12.344C38.6401 12.932 38.4301 13.436 38.0101 13.856C37.5901 14.276 37.0861 14.514 36.4981 14.57C31.5421 14.962 29.0641 17.482 29.0641 22.13V29.606C29.0641 30.25 28.8261 30.81 28.3501 31.286C27.8741 31.762 27.3141 32 26.6701 32H25.6201ZM51.6946 13.646C50.2666 13.646 49.1606 14.052 48.3766 14.864C47.6206 15.648 47.1446 16.922 46.9486 18.686C46.9486 18.91 47.0606 19.022 47.2846 19.022H55.5166C55.7406 19.022 55.8526 18.91 55.8526 18.686C55.7406 15.326 54.3546 13.646 51.6946 13.646ZM52.7446 32.42C49.0766 32.42 46.2486 31.468 44.2606 29.564C42.3006 27.632 41.3206 24.804 41.3206 21.08C41.3206 17.384 42.2026 14.57 43.9666 12.638C45.7306 10.706 48.2786 9.74 51.6106 9.74C57.8266 9.74 61.0186 13.268 61.1866 20.324C61.2146 20.996 60.9766 21.556 60.4726 22.004C59.9686 22.452 59.3806 22.676 58.7086 22.676H47.2426C46.9906 22.676 46.8926 22.802 46.9486 23.054C47.1446 24.93 47.7606 26.302 48.7966 27.17C49.8606 28.01 51.4006 28.43 53.4166 28.43C54.6766 28.43 56.0766 28.22 57.6166 27.8C58.1206 27.66 58.5826 27.744 59.0026 28.052C59.4506 28.36 59.6746 28.78 59.6746 29.312C59.6746 29.956 59.4786 30.53 59.0866 31.034C58.7226 31.51 58.2326 31.804 57.6166 31.916C56.0486 32.252 54.4246 32.42 52.7446 32.42ZM76.0083 21.5C72.0043 21.5 70.0023 22.732 70.0023 25.196C70.0023 26.092 70.2543 26.82 70.7583 27.38C71.2903 27.94 71.9623 28.22 72.7743 28.22C74.3703 28.22 75.6583 27.73 76.6383 26.75C77.6183 25.742 78.1083 24.37 78.1083 22.634V21.878C78.1083 21.626 77.9823 21.5 77.7303 21.5H76.0083ZM71.2623 32.42C69.3583 32.42 67.7763 31.804 66.5163 30.572C65.2843 29.312 64.6683 27.688 64.6683 25.7C64.6683 23.264 65.5923 21.374 67.4403 20.03C69.3163 18.686 72.1723 18.014 76.0083 18.014H77.7303C77.9823 18.014 78.1083 17.888 78.1083 17.636V17.3C78.1083 16.012 77.8003 15.116 77.1843 14.612C76.5683 14.08 75.4763 13.814 73.9083 13.814C72.2843 13.814 70.2963 14.108 67.9443 14.696C67.4403 14.836 66.9783 14.752 66.5583 14.444C66.1383 14.108 65.9283 13.674 65.9283 13.142C65.9283 12.498 66.1243 11.924 66.5163 11.42C66.9083 10.888 67.4123 10.566 68.0283 10.454C70.1563 9.978 72.1583 9.74 74.0343 9.74C77.6183 9.74 80.1243 10.384 81.5523 11.672C82.9803 12.96 83.6943 15.214 83.6943 18.434V29.606C83.6943 30.25 83.4563 30.81 82.9803 31.286C82.5323 31.762 81.9863 32 81.3423 32H80.8803C80.2083 32 79.6343 31.776 79.1583 31.328C78.6823 30.852 78.4303 30.278 78.4023 29.606V29.018C78.4023 28.99 78.3883 28.976 78.3603 28.976C78.3043 28.976 78.2763 28.99 78.2763 29.018C76.5683 31.286 74.2303 32.42 71.2623 32.42ZM88.9558 15.074C88.3958 15.074 87.9198 14.878 87.5278 14.486C87.1358 14.066 86.9398 13.576 86.9398 13.016C86.9398 12.456 87.1358 11.98 87.5278 11.588C87.9198 11.196 88.3958 11 88.9558 11H90.9718C91.2238 11 91.3498 10.874 91.3498 10.622V5.414C91.3498 4.77 91.5738 4.21 92.0218 3.734C92.4978 3.258 93.0578 3.02 93.7018 3.02H94.5418C95.1858 3.02 95.7458 3.258 96.2218 3.734C96.6978 4.21 96.9358 4.77 96.9358 5.414V10.622C96.9358 10.874 97.0618 11 97.3138 11H102.102C102.662 11 103.138 11.196 103.53 11.588C103.95 11.98 104.16 12.456 104.16 13.016C104.16 13.576 103.95 14.066 103.53 14.486C103.138 14.878 102.662 15.074 102.102 15.074H97.3138C97.0618 15.074 96.9358 15.186 96.9358 15.41V23.894C96.9358 25.714 97.1318 26.89 97.5238 27.422C97.9158 27.954 98.7278 28.22 99.9598 28.22C100.632 28.22 101.136 28.192 101.472 28.136C102.032 28.08 102.522 28.206 102.942 28.514C103.362 28.822 103.572 29.242 103.572 29.774C103.572 30.39 103.362 30.95 102.942 31.454C102.55 31.93 102.06 32.196 101.472 32.252C100.24 32.364 99.3158 32.42 98.6998 32.42C95.9838 32.42 94.0798 31.846 92.9878 30.698C91.8958 29.522 91.3498 27.436 91.3498 24.44V15.41C91.3498 15.186 91.2238 15.074 90.9718 15.074H88.9558ZM113.628 32C112.984 32 112.424 31.762 111.948 31.286C111.472 30.81 111.234 30.25 111.234 29.606V12.554C111.234 11.91 111.472 11.35 111.948 10.874C112.424 10.398 112.984 10.16 113.628 10.16H114.72C115.364 10.16 115.924 10.398 116.4 10.874C116.876 11.35 117.114 11.91 117.114 12.554V29.606C117.114 30.25 116.876 30.81 116.4 31.286C115.924 31.762 115.364 32 114.72 32H113.628ZM113.628 5.54C112.984 5.54 112.424 5.302 111.948 4.826C111.472 4.35 111.234 3.79 111.234 3.146V2.894C111.234 2.25 111.472 1.69 111.948 1.214C112.424 0.737998 112.984 0.499997 113.628 0.499997H114.72C115.364 0.499997 115.924 0.737998 116.4 1.214C116.876 1.69 117.114 2.25 117.114 2.894V3.146C117.114 3.79 116.876 4.35 116.4 4.826C115.924 5.302 115.364 5.54 114.72 5.54H113.628ZM128.45 29.732L122.864 12.428C122.668 11.868 122.738 11.35 123.074 10.874C123.438 10.398 123.914 10.16 124.502 10.16H125.762C126.462 10.16 127.092 10.384 127.652 10.832C128.212 11.252 128.576 11.798 128.744 12.47L132.944 28.724C132.944 28.752 132.958 28.766 132.986 28.766C133.014 28.766 133.028 28.752 133.028 28.724L137.228 12.47C137.396 11.798 137.76 11.252 138.32 10.832C138.88 10.384 139.51 10.16 140.21 10.16H141.302C141.89 10.16 142.352 10.398 142.688 10.874C143.052 11.35 143.136 11.868 142.94 12.428L137.354 29.732C137.158 30.404 136.766 30.95 136.178 31.37C135.618 31.79 134.974 32 134.246 32H131.558C130.858 32 130.214 31.79 129.626 31.37C129.066 30.95 128.674 30.404 128.45 29.732ZM150.501 32C149.857 32 149.297 31.762 148.821 31.286C148.345 30.81 148.107 30.25 148.107 29.606V12.554C148.107 11.91 148.345 11.35 148.821 10.874C149.297 10.398 149.857 10.16 150.501 10.16H151.593C152.237 10.16 152.797 10.398 153.273 10.874C153.749 11.35 153.987 11.91 153.987 12.554V29.606C153.987 30.25 153.749 30.81 153.273 31.286C152.797 31.762 152.237 32 151.593 32H150.501ZM150.501 5.54C149.857 5.54 149.297 5.302 148.821 4.826C148.345 4.35 148.107 3.79 148.107 3.146V2.894C148.107 2.25 148.345 1.69 148.821 1.214C149.297 0.737998 149.857 0.499997 150.501 0.499997H151.593C152.237 0.499997 152.797 0.737998 153.273 1.214C153.749 1.69 153.987 2.25 153.987 2.894V3.146C153.987 3.79 153.749 4.35 153.273 4.826C152.797 5.302 152.237 5.54 151.593 5.54H150.501ZM162.005 15.074C161.445 15.074 160.969 14.878 160.577 14.486C160.185 14.066 159.989 13.576 159.989 13.016C159.989 12.456 160.185 11.98 160.577 11.588C160.969 11.196 161.445 11 162.005 11H164.021C164.273 11 164.399 10.874 164.399 10.622V5.414C164.399 4.77 164.623 4.21 165.071 3.734C165.547 3.258 166.107 3.02 166.751 3.02H167.591C168.235 3.02 168.795 3.258 169.271 3.734C169.747 4.21 169.985 4.77 169.985 5.414V10.622C169.985 10.874 170.111 11 170.363 11H175.151C175.711 11 176.187 11.196 176.579 11.588C176.999 11.98 177.209 12.456 177.209 13.016C177.209 13.576 176.999 14.066 176.579 14.486C176.187 14.878 175.711 15.074 175.151 15.074H170.363C170.111 15.074 169.985 15.186 169.985 15.41V23.894C169.985 25.714 170.181 26.89 170.573 27.422C170.965 27.954 171.777 28.22 173.009 28.22C173.681 28.22 174.185 28.192 174.521 28.136C175.081 28.08 175.571 28.206 175.991 28.514C176.411 28.822 176.621 29.242 176.621 29.774C176.621 30.39 176.411 30.95 175.991 31.454C175.599 31.93 175.109 32.196 174.521 32.252C173.289 32.364 172.365 32.42 171.749 32.42C169.033 32.42 167.129 31.846 166.037 30.698C164.945 29.522 164.399 27.436 164.399 24.44V15.41C164.399 15.186 164.273 15.074 164.021 15.074H162.005ZM188.651 31.664L181.679 12.386C181.511 11.826 181.581 11.322 181.889 10.874C182.197 10.398 182.645 10.16 183.233 10.16H184.493C185.193 10.16 185.837 10.384 186.425 10.832C187.013 11.252 187.391 11.798 187.559 12.47L191.465 26.204C191.465 26.232 191.479 26.246 191.507 26.246C191.535 26.246 191.549 26.232 191.549 26.204L196.043 12.428C196.267 11.756 196.673 11.21 197.261 10.79C197.849 10.37 198.493 10.16 199.193 10.16H200.201C200.789 10.16 201.237 10.398 201.545 10.874C201.881 11.35 201.937 11.854 201.713 12.386L191.465 39.014C191.213 39.686 190.793 40.218 190.205 40.61C189.617 41.03 188.959 41.24 188.231 41.24H187.223C186.663 41.24 186.215 41.002 185.879 40.526C185.571 40.078 185.529 39.588 185.753 39.056L188.651 32.336C188.707 32.224 188.735 32.112 188.735 32C188.735 31.888 188.707 31.776 188.651 31.664Z" fill="#EBF2FF"/>
</svg>
